<?xml version="1.0" standalone="no"?>
<!DOCTYPE svg PUBLIC "-//W3C//DTD SVG 20010904//EN"
 "http://www.w3.org/TR/2001/REC-SVG-20010904/DTD/svg10.dtd">
<svg version="1.0" xmlns="http://www.w3.org/2000/svg"
 width="840.000000pt" height="477.000000pt" viewBox="0 0 840.000000 477.000000"
 preserveAspectRatio="xMidYMid meet">

<g transform="translate(0.000000,477.000000) scale(0.100000,-0.100000)"
fill="#3b5bae" stroke="none">
<path d="M2164 4351 c-34 -21 -68 -70 -79 -114 -8 -29 -31 -47 -52 -40 -26 9
-123 -19 -163 -48 -66 -48 -88 -128 -56 -204 26 -62 63 -75 207 -75 69 0 140
-5 157 -11 39 -13 109 -99 250 -304 129 -188 129 -188 140 -181 6 3 24 30 40
59 57 100 125 145 290 187 73 19 83 7 -243 257 -175 134 -240 198 -249 244
-20 101 -31 132 -57 169 -55 76 -123 99 -185 61z"/>
<path d="M6090 4337 c-43 -22 -51 -51 -48 -184 3 -117 2 -122 -22 -148 -35
-37 -231 -168 -372 -249 -65 -37 -118 -74 -118 -81 0 -15 5 -17 90 -35 30 -7
71 -21 91 -31 44 -22 107 -91 140 -154 13 -25 29 -45 35 -45 7 0 57 53 111
118 187 220 284 292 393 292 73 0 117 14 153 47 99 95 68 201 -72 243 -37 11
-75 28 -84 37 -8 10 -19 41 -23 70 -8 63 -30 86 -107 113 -64 23 -130 26 -167
7z"/>
<path d="M3940 3694 c-458 -26 -817 -76 -1025 -141 -112 -36 -145 -54 -201
-116 -125 -136 -322 -629 -390 -973 -27 -133 -24 -312 4 -385 53 -135 153
-197 401 -253 162 -36 191 -49 221 -98 26 -43 73 -218 120 -448 49 -238 52
-249 93 -287 56 -54 147 -88 347 -128 242 -50 1036 -135 1115 -121 80 15 127
85 260 392 112 258 150 321 197 328 18 2 109 14 201 26 179 23 361 58 455 87
41 13 70 31 103 64 40 39 49 55 62 115 31 136 41 286 41 589 -1 611 -82 1021
-227 1151 -96 87 -306 142 -687 180 -157 15 -913 28 -1090 18z m1055 -208
c285 -29 441 -60 542 -107 55 -26 64 -35 87 -83 69 -145 110 -397 125 -771 14
-339 -10 -715 -48 -748 -35 -31 -231 -71 -526 -107 -93 -12 -182 -26 -197 -32
-39 -15 -108 -93 -151 -168 -19 -36 -67 -137 -105 -225 -107 -248 -132 -295
-156 -304 -24 -9 -321 16 -636 54 -353 43 -599 98 -624 139 -7 12 -18 46 -24
76 -75 372 -113 516 -165 613 -54 103 -119 141 -317 185 -268 60 -293 79 -298
227 -8 205 107 602 264 918 91 180 118 200 349 252 190 43 472 76 810 95 222
13 891 4 1070 -14z"/>
<path d="M3248 3109 c-130 -14 -162 -41 -199 -171 -32 -116 -34 -294 -3 -353
32 -60 73 -80 164 -78 131 3 416 90 469 144 68 68 67 286 -2 383 -28 40 -89
64 -193 76 -99 11 -125 11 -236 -1z"/>
<path d="M4813 3053 c-28 -23 -96 -169 -118 -253 -22 -84 -15 -143 19 -179 44
-46 181 -122 283 -157 156 -54 248 -45 310 30 35 43 46 76 69 206 30 174 6
260 -84 298 -105 45 -194 64 -327 68 -115 5 -133 3 -152 -13z"/>
<path d="M4082 2470 c-42 -17 -157 -144 -194 -216 -47 -90 -54 -124 -34 -166
29 -60 111 -88 259 -88 98 0 151 13 183 45 51 51 23 232 -56 353 -49 77 -94
97 -158 72z"/>
<path d="M3524 1739 c-10 -11 -28 -48 -40 -82 l-21 -62 -85 -5 c-96 -6 -128
-23 -128 -70 0 -41 17 -50 98 -50 l73 0 -7 -84 c-6 -77 -5 -85 15 -105 11 -11
29 -21 39 -21 38 0 53 24 63 100 13 91 20 101 68 95 204 -28 267 -38 275 -45
5 -5 3 -36 -4 -72 -11 -56 -11 -67 4 -96 14 -27 22 -32 51 -32 41 0 50 13 60
90 9 66 20 90 43 90 35 0 293 -53 307 -64 11 -9 12 -19 5 -51 -17 -71 -12
-114 15 -140 29 -30 49 -31 75 -5 14 14 20 33 20 64 0 59 15 96 38 96 11 0 40
-11 66 -25 56 -30 77 -31 99 -7 41 45 5 103 -82 132 -24 8 -46 20 -49 28 -3 8
8 38 23 67 28 51 28 53 12 79 -37 56 -97 25 -141 -72 -14 -30 -25 -42 -40 -42
-30 0 -305 56 -313 63 -3 4 4 31 17 62 21 52 21 56 6 80 -12 19 -25 25 -52 25
-34 0 -36 -2 -70 -76 -33 -72 -36 -76 -62 -71 -15 3 -89 13 -166 23 -90 12
-140 22 -143 31 -3 7 2 31 11 53 21 53 20 83 -2 103 -25 23 -55 21 -78 -4z"/>
<path d="M2532 1515 c-134 -130 -256 -242 -270 -249 -15 -8 -61 -19 -102 -25
-165 -25 -211 -61 -225 -177 -13 -107 30 -150 142 -139 l62 5 22 -50 c44 -103
115 -127 202 -69 55 36 92 93 107 167 17 79 77 150 279 332 100 90 184 173
187 186 7 27 -13 128 -33 167 -13 27 -95 87 -117 87 -6 0 -121 -106 -254 -235z"/>
<path d="M5285 1434 c-123 -24 -124 -25 -155 -64 -51 -64 -110 -173 -110 -202
0 -25 21 -41 208 -164 242 -160 337 -228 348 -252 5 -9 9 -81 9 -159 0 -135 1
-144 23 -165 20 -20 32 -23 100 -23 134 1 202 49 202 144 0 37 25 56 100 78
79 22 108 39 125 73 27 53 18 107 -29 158 -32 36 -67 50 -148 60 -41 5 -93 19
-117 31 -64 33 -187 156 -326 327 -69 83 -132 155 -141 158 -17 6 -56 6 -89 0z"/>
</g>
</svg>
