<?xml version="1.0" encoding="UTF-8"?><svg width="30px" height="30px" stroke-width="2" viewBox="0 0 24 24" fill="#3b5bae" xmlns="http://www.w3.org/2000/svg" color="#3b5bae"><path d="M17 22H7a2 2 0 01-2-2v-8.818a.6.6 0 00-.1-.333L3.1 8.15a.6.6 0 01-.1-.333V2.6a.6.6 0 01.6-.6h1.8a.6.6 0 01.6.6v1.8a.6.6 0 00.6.6h2.8a.6.6 0 00.6-.6V2.6a.6.6 0 01.6-.6h2.8a.6.6 0 01.6.6v1.8a.6.6 0 00.6.6h2.8a.6.6 0 00.6-.6V2.6a.6.6 0 01.6-.6h1.8a.6.6 0 01.6.6v5.218a.6.6 0 01-.1.333l-1.8 2.698a.6.6 0 00-.1.333V20a2 2 0 01-2 2z" stroke="#3b5bae" stroke-width="1.5"></path></svg>